<mxfile host="app.diagrams.net" modified="2023-09-29T18:39:45.078Z" agent="Mozilla/5.0 (Windows NT 10.0; Win64; x64; rv:109.0) Gecko/20100101 Firefox/118.0" etag="WYJIZKsqQzGCneXHTMPQ" version="22.0.0" type="google" pages="3">
  <diagram name="Diagrama de componentes" id="mZNEE2rJ8CzhPDQj5g3j">
    <mxGraphModel grid="1" page="1" gridSize="10" guides="1" tooltips="1" connect="1" arrows="1" fold="1" pageScale="1" pageWidth="827" pageHeight="1169" math="0" shadow="0">
      <root>
        <mxCell id="0" />
        <mxCell id="1" parent="0" />
        <mxCell id="X_xkrlFQJ5sx2TmhTXDF-5" style="edgeStyle=orthogonalEdgeStyle;rounded=0;orthogonalLoop=1;jettySize=auto;html=1;exitX=0.5;exitY=1;exitDx=0;exitDy=0;" edge="1" parent="1" source="X_xkrlFQJ5sx2TmhTXDF-3" target="X_xkrlFQJ5sx2TmhTXDF-4">
          <mxGeometry relative="1" as="geometry" />
        </mxCell>
        <mxCell id="X_xkrlFQJ5sx2TmhTXDF-3" value="Front&lt;br&gt;&lt;br&gt;(PostMan / Swagger)" style="shape=module;align=left;spacingLeft=20;align=center;verticalAlign=top;whiteSpace=wrap;html=1;" vertex="1" parent="1">
          <mxGeometry x="319" y="365" width="190" height="80" as="geometry" />
        </mxCell>
        <mxCell id="X_xkrlFQJ5sx2TmhTXDF-7" style="edgeStyle=orthogonalEdgeStyle;rounded=0;orthogonalLoop=1;jettySize=auto;html=1;exitX=0.5;exitY=1;exitDx=0;exitDy=0;" edge="1" parent="1" source="X_xkrlFQJ5sx2TmhTXDF-4" target="X_xkrlFQJ5sx2TmhTXDF-6">
          <mxGeometry relative="1" as="geometry" />
        </mxCell>
        <mxCell id="X_xkrlFQJ5sx2TmhTXDF-4" value="&lt;div&gt;&lt;br&gt;&lt;/div&gt;&lt;div&gt;&lt;br&gt;&lt;/div&gt;&lt;div&gt;API Sucursal Banco&lt;br&gt;&lt;/div&gt;" style="shape=module;align=left;spacingLeft=20;align=center;verticalAlign=top;whiteSpace=wrap;html=1;" vertex="1" parent="1">
          <mxGeometry x="319" y="545" width="190" height="80" as="geometry" />
        </mxCell>
        <mxCell id="X_xkrlFQJ5sx2TmhTXDF-6" value="Database&lt;br&gt;FreeDB" style="shape=cylinder3;whiteSpace=wrap;html=1;boundedLbl=1;backgroundOutline=1;size=15;" vertex="1" parent="1">
          <mxGeometry x="384" y="725" width="60" height="80" as="geometry" />
        </mxCell>
      </root>
    </mxGraphModel>
  </diagram>
  <diagram id="-P4Mnyqb_cOZvExTDsNc" name="Diagrama de paquetes">
    <mxGraphModel dx="1909" dy="936" grid="1" gridSize="10" guides="1" tooltips="1" connect="1" arrows="1" fold="1" page="1" pageScale="1" pageWidth="827" pageHeight="1169" math="0" shadow="0">
      <root>
        <mxCell id="0" />
        <mxCell id="1" parent="0" />
        <mxCell id="vLg9xV0Jb98Dz_GO41BQ-12" style="edgeStyle=orthogonalEdgeStyle;rounded=0;orthogonalLoop=1;jettySize=auto;html=1;exitX=0.5;exitY=1;exitDx=0;exitDy=0;exitPerimeter=0;entryX=0.498;entryY=0.114;entryDx=0;entryDy=0;entryPerimeter=0;" edge="1" parent="1" source="vLg9xV0Jb98Dz_GO41BQ-1" target="vLg9xV0Jb98Dz_GO41BQ-8">
          <mxGeometry relative="1" as="geometry">
            <mxPoint x="414" y="525" as="targetPoint" />
          </mxGeometry>
        </mxCell>
        <mxCell id="vLg9xV0Jb98Dz_GO41BQ-1" value="" style="shape=folder;fontStyle=1;spacingTop=10;tabWidth=40;tabHeight=14;tabPosition=left;html=1;whiteSpace=wrap;" vertex="1" parent="1">
          <mxGeometry x="286" y="185" width="256" height="220" as="geometry" />
        </mxCell>
        <mxCell id="vLg9xV0Jb98Dz_GO41BQ-2" value="com.banco.sucursal.controller" style="text;align=center;fontStyle=1;verticalAlign=middle;spacingLeft=3;spacingRight=3;strokeColor=none;rotatable=0;points=[[0,0.5],[1,0.5]];portConstraint=eastwest;html=1;" vertex="1" parent="1">
          <mxGeometry x="352" y="205" width="50" height="10" as="geometry" />
        </mxCell>
        <mxCell id="vLg9xV0Jb98Dz_GO41BQ-3" value="" style="shape=folder;fontStyle=1;spacingTop=10;tabWidth=40;tabHeight=14;tabPosition=left;html=1;whiteSpace=wrap;" vertex="1" parent="1">
          <mxGeometry x="309" y="237.5" width="210" height="115" as="geometry" />
        </mxCell>
        <mxCell id="vLg9xV0Jb98Dz_GO41BQ-7" value="com.banco.sucursal.controller.dto" style="text;align=center;fontStyle=1;verticalAlign=middle;spacingLeft=3;spacingRight=3;strokeColor=none;rotatable=0;points=[[0,0.5],[1,0.5]];portConstraint=eastwest;html=1;" vertex="1" parent="1">
          <mxGeometry x="389" y="290" width="50" height="10" as="geometry" />
        </mxCell>
        <mxCell id="vLg9xV0Jb98Dz_GO41BQ-13" style="edgeStyle=orthogonalEdgeStyle;rounded=0;orthogonalLoop=1;jettySize=auto;html=1;exitX=0.5;exitY=1;exitDx=0;exitDy=0;exitPerimeter=0;entryX=0.502;entryY=0.127;entryDx=0;entryDy=0;entryPerimeter=0;" edge="1" parent="1" source="vLg9xV0Jb98Dz_GO41BQ-8" target="vLg9xV0Jb98Dz_GO41BQ-10">
          <mxGeometry relative="1" as="geometry" />
        </mxCell>
        <mxCell id="vLg9xV0Jb98Dz_GO41BQ-8" value="" style="shape=folder;fontStyle=1;spacingTop=10;tabWidth=40;tabHeight=14;tabPosition=left;html=1;whiteSpace=wrap;" vertex="1" parent="1">
          <mxGeometry x="309" y="525" width="210" height="115" as="geometry" />
        </mxCell>
        <mxCell id="vLg9xV0Jb98Dz_GO41BQ-9" value="com.banco.sucursal.logica" style="text;align=center;fontStyle=1;verticalAlign=middle;spacingLeft=3;spacingRight=3;strokeColor=none;rotatable=0;points=[[0,0.5],[1,0.5]];portConstraint=eastwest;html=1;" vertex="1" parent="1">
          <mxGeometry x="389" y="577.5" width="50" height="10" as="geometry" />
        </mxCell>
        <mxCell id="vLg9xV0Jb98Dz_GO41BQ-15" style="edgeStyle=orthogonalEdgeStyle;rounded=0;orthogonalLoop=1;jettySize=auto;html=1;exitX=0.5;exitY=1;exitDx=0;exitDy=0;exitPerimeter=0;entryX=0.5;entryY=0;entryDx=0;entryDy=0;entryPerimeter=0;" edge="1" parent="1" source="vLg9xV0Jb98Dz_GO41BQ-10" target="vLg9xV0Jb98Dz_GO41BQ-14">
          <mxGeometry relative="1" as="geometry" />
        </mxCell>
        <mxCell id="vLg9xV0Jb98Dz_GO41BQ-10" value="" style="shape=folder;fontStyle=1;spacingTop=10;tabWidth=40;tabHeight=14;tabPosition=left;html=1;whiteSpace=wrap;" vertex="1" parent="1">
          <mxGeometry x="309" y="765" width="210" height="115" as="geometry" />
        </mxCell>
        <mxCell id="vLg9xV0Jb98Dz_GO41BQ-11" value="com.banco.sucursal.persistencia" style="text;align=center;fontStyle=1;verticalAlign=middle;spacingLeft=3;spacingRight=3;strokeColor=none;rotatable=0;points=[[0,0.5],[1,0.5]];portConstraint=eastwest;html=1;" vertex="1" parent="1">
          <mxGeometry x="389" y="817.5" width="50" height="10" as="geometry" />
        </mxCell>
        <mxCell id="vLg9xV0Jb98Dz_GO41BQ-14" value="" style="shape=cylinder3;whiteSpace=wrap;html=1;boundedLbl=1;backgroundOutline=1;size=15;" vertex="1" parent="1">
          <mxGeometry x="384" y="1005" width="60" height="80" as="geometry" />
        </mxCell>
        <mxCell id="vLg9xV0Jb98Dz_GO41BQ-16" value="Database&lt;br&gt;FreeDB" style="text;align=center;fontStyle=1;verticalAlign=middle;spacingLeft=3;spacingRight=3;strokeColor=none;rotatable=0;points=[[0,0.5],[1,0.5]];portConstraint=eastwest;html=1;" vertex="1" parent="1">
          <mxGeometry x="389" y="1055" width="50" height="10" as="geometry" />
        </mxCell>
        <mxCell id="vLg9xV0Jb98Dz_GO41BQ-19" style="edgeStyle=orthogonalEdgeStyle;rounded=0;orthogonalLoop=1;jettySize=auto;html=1;entryX=0.5;entryY=0.048;entryDx=0;entryDy=0;entryPerimeter=0;" edge="1" parent="1" source="vLg9xV0Jb98Dz_GO41BQ-17" target="vLg9xV0Jb98Dz_GO41BQ-1">
          <mxGeometry relative="1" as="geometry" />
        </mxCell>
        <mxCell id="vLg9xV0Jb98Dz_GO41BQ-17" value="Actor" style="shape=umlActor;verticalLabelPosition=bottom;verticalAlign=top;html=1;outlineConnect=0;" vertex="1" parent="1">
          <mxGeometry x="399" y="50" width="30" height="60" as="geometry" />
        </mxCell>
      </root>
    </mxGraphModel>
  </diagram>
  <diagram id="UzfrSCys1LESM9C1CgfK" name="Diagrama de entidad relaciÃ³n">
    <mxGraphModel dx="1050" dy="558" grid="1" gridSize="10" guides="1" tooltips="1" connect="1" arrows="1" fold="1" page="1" pageScale="1" pageWidth="827" pageHeight="1169" math="0" shadow="0">
      <root>
        <mxCell id="0" />
        <mxCell id="1" parent="0" />
        <mxCell id="U0WaesolCWwt9AhXqc-9-4" value="&lt;div style=&quot;box-sizing:border-box;width:100%;background:#e4e4e4;padding:2px;&quot;&gt;Transaccion&lt;br&gt;&lt;/div&gt;&lt;table style=&quot;width:100%;font-size:1em;&quot; cellpadding=&quot;2&quot; cellspacing=&quot;0&quot;&gt;&lt;tbody&gt;&lt;tr&gt;&lt;td&gt;&lt;br&gt;&lt;/td&gt;&lt;td&gt;&lt;br&gt;&lt;/td&gt;&lt;/tr&gt;&lt;tr&gt;&lt;td&gt;&lt;br&gt;&lt;br&gt;&lt;/td&gt;&lt;td&gt;&lt;br&gt;&lt;/td&gt;&lt;/tr&gt;&lt;tr&gt;&lt;td&gt;&lt;br&gt;&lt;/td&gt;&lt;td&gt;&lt;br&gt;&lt;br&gt;&lt;br&gt;&lt;/td&gt;&lt;/tr&gt;&lt;/tbody&gt;&lt;/table&gt;" style="verticalAlign=top;align=left;overflow=fill;html=1;whiteSpace=wrap;" vertex="1" parent="1">
          <mxGeometry x="130" y="100" width="180" height="230" as="geometry" />
        </mxCell>
        <mxCell id="U0WaesolCWwt9AhXqc-9-5" value="PK" style="text;align=left;fontStyle=1;verticalAlign=middle;spacingLeft=3;spacingRight=3;strokeColor=none;rotatable=0;points=[[0,0.5],[1,0.5]];portConstraint=eastwest;html=1;" vertex="1" parent="1">
          <mxGeometry x="130" y="120" width="40" height="26" as="geometry" />
        </mxCell>
        <mxCell id="U0WaesolCWwt9AhXqc-9-6" value="FK1" style="text;align=left;fontStyle=1;verticalAlign=middle;spacingLeft=3;spacingRight=3;strokeColor=none;rotatable=0;points=[[0,0.5],[1,0.5]];portConstraint=eastwest;html=1;" vertex="1" parent="1">
          <mxGeometry x="130" y="146" width="40" height="26" as="geometry" />
        </mxCell>
        <mxCell id="U0WaesolCWwt9AhXqc-9-7" value="FK2" style="text;align=left;fontStyle=1;verticalAlign=middle;spacingLeft=3;spacingRight=3;strokeColor=none;rotatable=0;points=[[0,0.5],[1,0.5]];portConstraint=eastwest;html=1;" vertex="1" parent="1">
          <mxGeometry x="130" y="172" width="40" height="26" as="geometry" />
        </mxCell>
        <mxCell id="U0WaesolCWwt9AhXqc-9-8" value="FK3" style="text;align=left;fontStyle=1;verticalAlign=middle;spacingLeft=3;spacingRight=3;strokeColor=none;rotatable=0;points=[[0,0.5],[1,0.5]];portConstraint=eastwest;html=1;" vertex="1" parent="1">
          <mxGeometry x="130" y="198" width="40" height="26" as="geometry" />
        </mxCell>
        <mxCell id="U0WaesolCWwt9AhXqc-9-9" value="FK4" style="text;align=left;fontStyle=1;verticalAlign=middle;spacingLeft=3;spacingRight=3;strokeColor=none;rotatable=0;points=[[0,0.5],[1,0.5]];portConstraint=eastwest;html=1;" vertex="1" parent="1">
          <mxGeometry x="130" y="224" width="40" height="26" as="geometry" />
        </mxCell>
        <mxCell id="U0WaesolCWwt9AhXqc-9-10" value="id_transaccion" style="text;align=left;fontStyle=1;verticalAlign=middle;spacingLeft=3;spacingRight=3;strokeColor=none;rotatable=0;points=[[0,0.5],[1,0.5]];portConstraint=eastwest;html=1;" vertex="1" parent="1">
          <mxGeometry x="170" y="120" width="130" height="26" as="geometry" />
        </mxCell>
        <mxCell id="U0WaesolCWwt9AhXqc-9-11" value="id_cliente_origen" style="text;align=left;fontStyle=1;verticalAlign=middle;spacingLeft=3;spacingRight=3;strokeColor=none;rotatable=0;points=[[0,0.5],[1,0.5]];portConstraint=eastwest;html=1;" vertex="1" parent="1">
          <mxGeometry x="170" y="146" width="130" height="26" as="geometry" />
        </mxCell>
        <mxCell id="U0WaesolCWwt9AhXqc-9-12" value="id_cliente_destino" style="text;align=left;fontStyle=1;verticalAlign=middle;spacingLeft=3;spacingRight=3;strokeColor=none;rotatable=0;points=[[0,0.5],[1,0.5]];portConstraint=eastwest;html=1;" vertex="1" parent="1">
          <mxGeometry x="170" y="172" width="130" height="26" as="geometry" />
        </mxCell>
        <mxCell id="U0WaesolCWwt9AhXqc-9-13" value="id_producto_origen" style="text;align=left;fontStyle=1;verticalAlign=middle;spacingLeft=3;spacingRight=3;strokeColor=none;rotatable=0;points=[[0,0.5],[1,0.5]];portConstraint=eastwest;html=1;" vertex="1" parent="1">
          <mxGeometry x="170" y="198" width="130" height="26" as="geometry" />
        </mxCell>
        <mxCell id="U0WaesolCWwt9AhXqc-9-14" value="id_producto_destino" style="text;align=left;fontStyle=1;verticalAlign=middle;spacingLeft=3;spacingRight=3;strokeColor=none;rotatable=0;points=[[0,0.5],[1,0.5]];portConstraint=eastwest;html=1;" vertex="1" parent="1">
          <mxGeometry x="170" y="224" width="130" height="26" as="geometry" />
        </mxCell>
        <mxCell id="U0WaesolCWwt9AhXqc-9-15" value="hora_transaccion" style="text;align=left;fontStyle=1;verticalAlign=middle;spacingLeft=3;spacingRight=3;strokeColor=none;rotatable=0;points=[[0,0.5],[1,0.5]];portConstraint=eastwest;html=1;" vertex="1" parent="1">
          <mxGeometry x="170" y="250" width="130" height="26" as="geometry" />
        </mxCell>
        <mxCell id="U0WaesolCWwt9AhXqc-9-16" value="tipo_transaccion" style="text;align=left;fontStyle=1;verticalAlign=middle;spacingLeft=3;spacingRight=3;strokeColor=none;rotatable=0;points=[[0,0.5],[1,0.5]];portConstraint=eastwest;html=1;" vertex="1" parent="1">
          <mxGeometry x="170" y="276" width="130" height="26" as="geometry" />
        </mxCell>
        <mxCell id="U0WaesolCWwt9AhXqc-9-18" value="monto" style="text;align=left;fontStyle=1;verticalAlign=middle;spacingLeft=3;spacingRight=3;strokeColor=none;rotatable=0;points=[[0,0.5],[1,0.5]];portConstraint=eastwest;html=1;" vertex="1" parent="1">
          <mxGeometry x="170" y="302" width="130" height="26" as="geometry" />
        </mxCell>
        <mxCell id="U0WaesolCWwt9AhXqc-9-50" style="edgeStyle=orthogonalEdgeStyle;rounded=0;orthogonalLoop=1;jettySize=auto;html=1;exitX=1;exitY=0.5;exitDx=0;exitDy=0;entryX=0.5;entryY=1;entryDx=0;entryDy=0;endArrow=ERoneToMany;endFill=0;startArrow=ERmandOne;startFill=0;endSize=15;startSize=15;" edge="1" parent="1" source="U0WaesolCWwt9AhXqc-9-19" target="U0WaesolCWwt9AhXqc-9-33">
          <mxGeometry relative="1" as="geometry" />
        </mxCell>
        <mxCell id="U0WaesolCWwt9AhXqc-9-51" style="edgeStyle=orthogonalEdgeStyle;rounded=0;orthogonalLoop=1;jettySize=auto;html=1;exitX=0;exitY=0.5;exitDx=0;exitDy=0;entryX=0.5;entryY=1;entryDx=0;entryDy=0;endSize=15;startSize=15;startArrow=ERoneToMany;startFill=0;endArrow=ERzeroToMany;endFill=0;" edge="1" parent="1" source="U0WaesolCWwt9AhXqc-9-19" target="U0WaesolCWwt9AhXqc-9-4">
          <mxGeometry relative="1" as="geometry" />
        </mxCell>
        <mxCell id="U0WaesolCWwt9AhXqc-9-19" value="&lt;div style=&quot;box-sizing:border-box;width:100%;background:#e4e4e4;padding:2px;&quot;&gt;Cliente&lt;br&gt;&lt;/div&gt;&lt;table style=&quot;width:100%;font-size:1em;&quot; cellpadding=&quot;2&quot; cellspacing=&quot;0&quot;&gt;&lt;tbody&gt;&lt;tr&gt;&lt;td&gt;&lt;br&gt;&lt;/td&gt;&lt;td&gt;&lt;br&gt;&lt;/td&gt;&lt;/tr&gt;&lt;tr&gt;&lt;td&gt;&lt;br&gt;&lt;br&gt;&lt;/td&gt;&lt;td&gt;&lt;br&gt;&lt;/td&gt;&lt;/tr&gt;&lt;tr&gt;&lt;td&gt;&lt;br&gt;&lt;/td&gt;&lt;td&gt;&lt;br&gt;&lt;br&gt;&lt;br&gt;&lt;/td&gt;&lt;/tr&gt;&lt;/tbody&gt;&lt;/table&gt;" style="verticalAlign=top;align=left;overflow=fill;html=1;whiteSpace=wrap;" vertex="1" parent="1">
          <mxGeometry x="350" y="425" width="180" height="160" as="geometry" />
        </mxCell>
        <mxCell id="U0WaesolCWwt9AhXqc-9-20" value="PK" style="text;align=left;fontStyle=1;verticalAlign=middle;spacingLeft=3;spacingRight=3;strokeColor=none;rotatable=0;points=[[0,0.5],[1,0.5]];portConstraint=eastwest;html=1;" vertex="1" parent="1">
          <mxGeometry x="350" y="445" width="40" height="26" as="geometry" />
        </mxCell>
        <mxCell id="U0WaesolCWwt9AhXqc-9-25" value="id_cliente" style="text;align=left;fontStyle=1;verticalAlign=middle;spacingLeft=3;spacingRight=3;strokeColor=none;rotatable=0;points=[[0,0.5],[1,0.5]];portConstraint=eastwest;html=1;" vertex="1" parent="1">
          <mxGeometry x="390" y="445" width="130" height="26" as="geometry" />
        </mxCell>
        <mxCell id="U0WaesolCWwt9AhXqc-9-26" value="activo" style="text;align=left;fontStyle=1;verticalAlign=middle;spacingLeft=3;spacingRight=3;strokeColor=none;rotatable=0;points=[[0,0.5],[1,0.5]];portConstraint=eastwest;html=1;" vertex="1" parent="1">
          <mxGeometry x="390" y="471" width="130" height="26" as="geometry" />
        </mxCell>
        <mxCell id="U0WaesolCWwt9AhXqc-9-27" value="nombres" style="text;align=left;fontStyle=1;verticalAlign=middle;spacingLeft=3;spacingRight=3;strokeColor=none;rotatable=0;points=[[0,0.5],[1,0.5]];portConstraint=eastwest;html=1;" vertex="1" parent="1">
          <mxGeometry x="390" y="497" width="130" height="26" as="geometry" />
        </mxCell>
        <mxCell id="U0WaesolCWwt9AhXqc-9-28" value="apellidos" style="text;align=left;fontStyle=1;verticalAlign=middle;spacingLeft=3;spacingRight=3;strokeColor=none;rotatable=0;points=[[0,0.5],[1,0.5]];portConstraint=eastwest;html=1;" vertex="1" parent="1">
          <mxGeometry x="390" y="523" width="130" height="26" as="geometry" />
        </mxCell>
        <mxCell id="U0WaesolCWwt9AhXqc-9-29" value="edad" style="text;align=left;fontStyle=1;verticalAlign=middle;spacingLeft=3;spacingRight=3;strokeColor=none;rotatable=0;points=[[0,0.5],[1,0.5]];portConstraint=eastwest;html=1;" vertex="1" parent="1">
          <mxGeometry x="390" y="549" width="130" height="26" as="geometry" />
        </mxCell>
        <mxCell id="U0WaesolCWwt9AhXqc-9-53" style="edgeStyle=orthogonalEdgeStyle;rounded=0;orthogonalLoop=1;jettySize=auto;html=1;exitX=0;exitY=0.5;exitDx=0;exitDy=0;entryX=1;entryY=0.665;entryDx=0;entryDy=0;entryPerimeter=0;endSize=15;startSize=15;startArrow=ERoneToMany;startFill=0;endArrow=ERzeroToMany;endFill=0;" edge="1" parent="1" source="U0WaesolCWwt9AhXqc-9-33" target="U0WaesolCWwt9AhXqc-9-4">
          <mxGeometry relative="1" as="geometry" />
        </mxCell>
        <mxCell id="U0WaesolCWwt9AhXqc-9-33" value="&lt;div style=&quot;box-sizing:border-box;width:100%;background:#e4e4e4;padding:2px;&quot;&gt;Producto&lt;br&gt;&lt;/div&gt;&lt;table style=&quot;width:100%;font-size:1em;&quot; cellpadding=&quot;2&quot; cellspacing=&quot;0&quot;&gt;&lt;tbody&gt;&lt;tr&gt;&lt;td&gt;&lt;br&gt;&lt;/td&gt;&lt;td&gt;&lt;br&gt;&lt;/td&gt;&lt;/tr&gt;&lt;tr&gt;&lt;td&gt;&lt;br&gt;&lt;br&gt;&lt;/td&gt;&lt;td&gt;&lt;br&gt;&lt;/td&gt;&lt;/tr&gt;&lt;tr&gt;&lt;td&gt;&lt;br&gt;&lt;/td&gt;&lt;td&gt;&lt;br&gt;&lt;br&gt;&lt;br&gt;&lt;/td&gt;&lt;/tr&gt;&lt;/tbody&gt;&lt;/table&gt;" style="verticalAlign=top;align=left;overflow=fill;html=1;whiteSpace=wrap;" vertex="1" parent="1">
          <mxGeometry x="560" y="176" width="180" height="154" as="geometry" />
        </mxCell>
        <mxCell id="U0WaesolCWwt9AhXqc-9-34" value="PK" style="text;align=left;fontStyle=1;verticalAlign=middle;spacingLeft=3;spacingRight=3;strokeColor=none;rotatable=0;points=[[0,0.5],[1,0.5]];portConstraint=eastwest;html=1;" vertex="1" parent="1">
          <mxGeometry x="560" y="196" width="40" height="26" as="geometry" />
        </mxCell>
        <mxCell id="U0WaesolCWwt9AhXqc-9-35" value="FK1" style="text;align=left;fontStyle=1;verticalAlign=middle;spacingLeft=3;spacingRight=3;strokeColor=none;rotatable=0;points=[[0,0.5],[1,0.5]];portConstraint=eastwest;html=1;" vertex="1" parent="1">
          <mxGeometry x="560" y="222" width="40" height="26" as="geometry" />
        </mxCell>
        <mxCell id="U0WaesolCWwt9AhXqc-9-39" value="id_producto" style="text;align=left;fontStyle=1;verticalAlign=middle;spacingLeft=3;spacingRight=3;strokeColor=none;rotatable=0;points=[[0,0.5],[1,0.5]];portConstraint=eastwest;html=1;" vertex="1" parent="1">
          <mxGeometry x="600" y="196" width="130" height="26" as="geometry" />
        </mxCell>
        <mxCell id="U0WaesolCWwt9AhXqc-9-40" value="id_cliente" style="text;align=left;fontStyle=1;verticalAlign=middle;spacingLeft=3;spacingRight=3;strokeColor=none;rotatable=0;points=[[0,0.5],[1,0.5]];portConstraint=eastwest;html=1;" vertex="1" parent="1">
          <mxGeometry x="600" y="222" width="130" height="26" as="geometry" />
        </mxCell>
        <mxCell id="U0WaesolCWwt9AhXqc-9-41" value="tipo_producto" style="text;align=left;fontStyle=1;verticalAlign=middle;spacingLeft=3;spacingRight=3;strokeColor=none;rotatable=0;points=[[0,0.5],[1,0.5]];portConstraint=eastwest;html=1;" vertex="1" parent="1">
          <mxGeometry x="600" y="248" width="130" height="26" as="geometry" />
        </mxCell>
        <mxCell id="U0WaesolCWwt9AhXqc-9-42" value="saldo_producto" style="text;align=left;fontStyle=1;verticalAlign=middle;spacingLeft=3;spacingRight=3;strokeColor=none;rotatable=0;points=[[0,0.5],[1,0.5]];portConstraint=eastwest;html=1;" vertex="1" parent="1">
          <mxGeometry x="600" y="274" width="130" height="26" as="geometry" />
        </mxCell>
        <mxCell id="U0WaesolCWwt9AhXqc-9-43" value="activo" style="text;align=left;fontStyle=1;verticalAlign=middle;spacingLeft=3;spacingRight=3;strokeColor=none;rotatable=0;points=[[0,0.5],[1,0.5]];portConstraint=eastwest;html=1;" vertex="1" parent="1">
          <mxGeometry x="600" y="300" width="130" height="26" as="geometry" />
        </mxCell>
      </root>
    </mxGraphModel>
  </diagram>
</mxfile>
